<?xml version="1.0" encoding="UTF-8" standalone="no"?>
<!-- Created with Inkscape (http://www.inkscape.org/) -->

<svg
   xmlns:dc="http://purl.org/dc/elements/1.1/"
   xmlns:cc="http://creativecommons.org/ns#"
   xmlns:rdf="http://www.w3.org/1999/02/22-rdf-syntax-ns#"
   xmlns:svg="http://www.w3.org/2000/svg"
   xmlns="http://www.w3.org/2000/svg"
   xmlns:sodipodi="http://sodipodi.sourceforge.net/DTD/sodipodi-0.dtd"
   xmlns:inkscape="http://www.inkscape.org/namespaces/inkscape"
   version="1.2"
   width="196.90625"
   height="196.90625"
   id="svg2"
   inkscape:version="0.48.4 r9939"
   sodipodi:docname="ThumbEqua.svg">
  <sodipodi:namedview
     pagecolor="#ffffff"
     bordercolor="#666666"
     borderopacity="1"
     objecttolerance="10"
     gridtolerance="10"
     guidetolerance="10"
     inkscape:pageopacity="0"
     inkscape:pageshadow="2"
     inkscape:window-width="1920"
     inkscape:window-height="1025"
     id="namedview26"
     showgrid="false"
     inkscape:zoom="2.3822094"
     inkscape:cx="-47.032412"
     inkscape:cy="145.22802"
     inkscape:window-x="-3"
     inkscape:window-y="-3"
     inkscape:window-maximized="1"
     inkscape:current-layer="layer1"
     fit-margin-top="10"
     fit-margin-left="10"
     fit-margin-right="10"
     fit-margin-bottom="10" />
  <defs
     id="defs4">
    <path
       d="m 389.59375,352.98596 c 50.219,0 90.90625,42.44971 90.90625,94.84406 0,52.39434 -40.68725,94.87666 -90.90625,94.87666 -50.21899,0 -90.9375,-42.48232 -90.9375,-94.87666 0,-52.39435 40.71851,-94.84406 90.9375,-94.84406 z m 0,-1.04331 c -50.75943,0 -91.9375,42.92917 -91.9375,95.88737 0,52.95819 41.17807,95.91998 91.9375,95.91998 50.75944,0 91.90625,-42.96179 91.90625,-95.91998 0,-52.9582 -41.14681,-95.88737 -91.90625,-95.88737 z"
       id="path2985-1"
       style="font-size:medium;font-style:normal;font-variant:normal;font-weight:normal;font-stretch:normal;text-indent:0;text-align:start;text-decoration:none;line-height:normal;letter-spacing:normal;word-spacing:normal;text-transform:none;direction:ltr;block-progression:tb;writing-mode:lr-tb;text-anchor:start;baseline-shift:baseline;color:#000000;fill:#000000;fill-opacity:1;stroke:none;stroke-width:1;marker:none;visibility:visible;display:inline;overflow:visible;enable-background:accumulate;font-family:Sans;-inkscape-font-specification:Sans"
       inkscape:connector-curvature="0" />
  </defs>
  <metadata
     id="metadata7">
    <rdf:RDF>
      <cc:Work
         rdf:about="">
        <dc:format>image/svg+xml</dc:format>
        <dc:type
           rdf:resource="http://purl.org/dc/dcmitype/StillImage" />
        <dc:title />
      </cc:Work>
    </rdf:RDF>
  </metadata>
  <g
     transform="translate(-291.34375,-350.3125)"
     id="layer1">
    <flowRoot
       id="flowRoot3755"
       xml:space="preserve"
       style="font-size:40px;font-style:normal;font-weight:normal;line-height:125%;letter-spacing:0px;word-spacing:0px;fill:#000000;fill-opacity:1;stroke:none;font-family:Sans"><flowRegion
         id="flowRegion3757"><rect
           width="113.13708"
           height="44.446712"
           x="147.48227"
           y="328.08279"
           id="rect3759"
           style="fill:#000000" /></flowRegion><flowPara
         id="flowPara3761" /></flowRoot>    <g
       style="font-size:16px;font-style:normal;font-variant:normal;font-weight:normal;font-stretch:normal;line-height:125%;letter-spacing:0px;word-spacing:0px;fill:#ffffff;fill-opacity:1;stroke:none;font-family:Liberation Serif;-inkscape-font-specification:Liberation Serif"
       id="text3007">
      <path
         d="m 339.67229,367.64446 c -0.22762,-0.34899 -0.46321,-0.62439 -0.70676,-0.82621 -0.23919,-0.20464 -0.49867,-0.33077 -0.77844,-0.37838 -0.27826,-0.0548 -0.58259,-0.0304 -0.913,0.0731 -0.33042,0.10358 -0.70066,0.2891 -1.11073,0.55654 l -0.64129,0.41825 2.71011,4.15526 0.68055,-0.44386 c 0.41007,-0.26744 0.72123,-0.53878 0.93347,-0.81402 0.21376,-0.28242 0.34377,-0.56931 0.39005,-0.86066 0.0506,-0.29419 0.0241,-0.5971 -0.0797,-0.90874 -0.10377,-0.31163 -0.26519,-0.6354 -0.48427,-0.97132 m -1.056,4.58754 1.90348,2.9185 1.50905,-0.73238 0.2262,0.34681 -3.6972,2.41136 -0.2262,-0.34681 0.92522,-0.85528 -5.04465,-7.73467 -1.23649,0.56394 -0.2262,-0.34682 3.31113,-2.15955 c 0.61511,-0.40117 1.1718,-0.66787 1.67007,-0.8001 0.4998,-0.13942 0.95085,-0.17243 1.35315,-0.0991 0.39946,0.069 0.75397,0.22646 1.06353,0.47226 0.30956,0.24583 0.58241,0.54978 0.81857,0.91185 0.23331,0.35773 0.40574,0.73651 0.51728,1.13634 0.1159,0.397 0.13421,0.80167 0.0549,1.21402 -0.0749,0.40952 -0.26543,0.82293 -0.57155,1.24021 -0.30613,0.41731 -0.7602,0.82228 -1.36222,1.21492 l -0.98811,0.64445"
         style="fill:#ffffff"
         id="path3135" />
      <path
         d="m 350.39314,365.9205 c 0.57673,1.10313 0.7726,2.07919 0.58762,2.92819 -0.185,0.849 -0.79906,1.54617 -1.84218,2.09153 -0.9785,0.51158 -1.87023,0.60459 -2.67518,0.27902 -0.80494,-0.32556 -1.4982,-1.04452 -2.07975,-2.15688 -0.57432,-1.09851 -0.76426,-2.06885 -0.56983,-2.91103 0.19443,-0.84218 0.79936,-1.52871 1.81479,-2.0596 0.98774,-0.51639 1.88277,-0.61994 2.68509,-0.31065 0.79991,0.3047 1.49306,1.01784 2.07944,2.13942 m -1.24621,0.65154 c -0.23407,-0.44771 -0.4728,-0.83127 -0.7162,-1.15069 -0.24581,-0.32402 -0.503,-0.56864 -0.77156,-0.73385 -0.26637,-0.17223 -0.54752,-0.26033 -0.84345,-0.2643 -0.29834,-0.009 -0.61599,0.0752 -0.95292,0.25136 -0.34156,0.17858 -0.58932,0.39039 -0.74331,0.63545 -0.15639,0.24046 -0.23526,0.51678 -0.2366,0.82897 -0.004,0.30758 0.0619,0.65234 0.19692,1.03428 0.13263,0.37733 0.31597,0.78985 0.55005,1.23756 0.23648,0.45233 0.47301,0.84293 0.70959,1.17178 0.23658,0.32886 0.48464,0.58412 0.74419,0.7658 0.25713,0.17706 0.53146,0.2746 0.82299,0.29262 0.28911,0.0134 0.60444,-0.0692 0.946,-0.24774 0.33694,-0.17616 0.58701,-0.38918 0.75023,-0.63908 0.16079,-0.2545 0.24648,-0.54026 0.25706,-0.85729 0.0128,-0.32404 -0.0437,-0.67945 -0.16955,-1.06622 -0.12581,-0.38677 -0.30695,-0.80632 -0.54344,-1.25865"
         style="fill:#ffffff"
         id="path3137" />
      <path
         d="m 351.16946,362.18666 -0.84738,0.13744 -0.13376,-0.32512 1.90736,-0.78476 0.17795,0.39142 c 0.0655,-0.12831 0.15177,-0.25392 0.25889,-0.37685 0.10996,-0.12971 0.2345,-0.25135 0.37363,-0.36493 0.13715,-0.11837 0.28888,-0.22867 0.45521,-0.3309 0.16632,-0.10222 0.341,-0.19098 0.52403,-0.26629 0.42385,-0.17439 0.83508,-0.25629 1.23368,-0.2457 0.39859,0.0106 0.77733,0.11666 1.13621,0.31817 0.35689,0.19672 0.68572,0.48945 0.98647,0.87821 0.30359,0.38197 0.5723,0.85714 0.80615,1.42549 0.2279,0.55391 0.37138,1.0806 0.43046,1.58006 0.0571,0.49465 0.0258,0.95245 -0.0939,1.37339 -0.12166,0.41613 -0.33806,0.78676 -0.6492,1.1119 -0.30634,0.32316 -0.71238,0.58877 -1.21811,0.79685 -0.24565,0.10107 -0.51169,0.19364 -0.79813,0.2777 -0.27964,0.0869 -0.55318,0.15438 -0.82062,0.20247 0.0286,0.0558 0.0602,0.11886 0.0947,0.18912 0.0413,0.0731 0.0779,0.14819 0.10957,0.22525 0.0385,0.0799 0.0716,0.15357 0.0994,0.221 0.0326,0.0654 0.0578,0.11985 0.0756,0.1632 l 0.75504,1.83512 1.25623,-0.31411 0.13971,0.33957 -3.23675,1.33172 -0.13971,-0.33957 0.78842,-0.52713 -3.67116,-8.92272 m 5.57796,0.99124 c -0.20214,-0.49128 -0.41549,-0.89348 -0.64005,-1.20659 -0.22457,-0.3131 -0.46092,-0.54532 -0.70904,-0.69668 -0.24529,-0.15814 -0.50193,-0.24122 -0.76993,-0.24923 -0.26799,-0.008 -0.54408,0.0465 -0.82826,0.16337 -0.2312,0.0951 -0.47033,0.21887 -0.71741,0.3712 -0.24424,0.14556 -0.44202,0.29451 -0.59334,0.44688 l 2.23242,5.42588 c 0.21815,-0.0447 0.455,-0.10554 0.71056,-0.18253 0.25356,-0.0818 0.50317,-0.17323 0.74882,-0.2743 0.63579,-0.26159 0.99017,-0.71434 1.06317,-1.35826 0.071,-0.64872 -0.0946,-1.46197 -0.49694,-2.43974"
         style="fill:#ffffff"
         id="path3139" />
    </g>
    <g
       style="font-size:16px;font-style:normal;font-variant:normal;font-weight:normal;font-stretch:normal;line-height:125%;letter-spacing:0px;word-spacing:0px;fill:#ffffff;fill-opacity:1;stroke:none;font-family:Liberation Serif;-inkscape-font-specification:Liberation Serif"
       id="text3007-1">
      <path
         d="m 428.47263,357.9935 -0.13634,0.39097 -1.15128,-0.18638 -7.30244,8.15156 -0.37622,-0.1312 -0.69399,-10.94025 -1.047,-0.58025 0.13634,-0.39097 3.99822,1.39434 -0.13635,0.39097 -1.39471,-0.27127 0.45583,8.32536 5.52675,-6.23899 -1.23143,-0.64457 0.13635,-0.39097 3.21627,1.12165"
         style="fill:#ffffff"
         id="path3123" />
      <path
         d="m 431.51124,367.06101 c -0.52536,1.12849 -1.18133,1.87734 -1.96791,2.24652 -0.78659,0.36919 -1.71344,0.30539 -2.78056,-0.19138 -1.00101,-0.466 -1.61691,-1.11753 -1.8477,-1.95459 -0.23079,-0.83706 -0.0813,-1.82456 0.44844,-2.96251 0.52315,-1.12377 1.17818,-1.86443 1.9651,-2.22198 0.78691,-0.35754 1.69976,-0.29452 2.73855,0.18906 1.01045,0.4704 1.63673,1.11815 1.87884,1.94324 0.2443,0.82037 0.0994,1.80425 -0.43476,2.95164 m -1.27487,-0.5935 c 0.21321,-0.45801 0.37265,-0.88073 0.47833,-1.26816 0.10787,-0.39215 0.14577,-0.74506 0.1137,-1.05873 -0.0252,-0.3162 -0.1261,-0.59299 -0.30283,-0.83039 -0.17455,-0.24211 -0.43416,-0.4434 -0.77884,-0.60387 -0.34942,-0.16265 -0.66822,-0.23063 -0.95641,-0.20394 -0.286,0.022 -0.55335,0.12733 -0.80205,0.31603 -0.24652,0.18398 -0.48037,0.44567 -0.70156,0.78507 -0.219,0.33467 -0.43511,0.73102 -0.64832,1.18902 -0.21542,0.46274 -0.38179,0.88798 -0.4991,1.27573 -0.11732,0.38776 -0.16922,0.7399 -0.15571,1.05642 0.0157,0.3118 0.10501,0.58892 0.26791,0.83136 0.16509,0.23772 0.42235,0.43791 0.77176,0.60057 0.34469,0.16046 0.66585,0.22954 0.96349,0.20724 0.29983,-0.027 0.57882,-0.13269 0.83698,-0.317 0.26506,-0.18683 0.51292,-0.44775 0.74356,-0.78275 0.23064,-0.335 0.45366,-0.73387 0.66909,-1.1966"
         style="fill:#ffffff"
         id="path3125" />
      <path
         d="m 436.44438,373.61037 c -0.16673,0.0183 -0.35083,0.0146 -0.55232,-0.0111 -0.19889,-0.0302 -0.40259,-0.0783 -0.61107,-0.14405 -0.21109,-0.0613 -0.42472,-0.13904 -0.64088,-0.23328 -0.21166,-0.0916 -0.41231,-0.19199 -0.60194,-0.30101 -0.55087,-0.31671 -0.97989,-0.66249 -1.28705,-1.03734 -0.30005,-0.37677 -0.49118,-0.78103 -0.57338,-1.21278 -0.0822,-0.43176 -0.0626,-0.88909 0.0588,-1.37199 0.12402,-0.48741 0.3379,-0.99527 0.64163,-1.52356 0.33227,-0.57795 0.69233,-1.0318 1.08016,-1.36154 0.39494,-0.33166 0.80445,-0.55281 1.22853,-0.66346 0.42667,-0.11516 0.86148,-0.12952 1.30442,-0.0431 0.44745,0.089 0.89243,0.26076 1.33493,0.51516 0.36573,0.21027 0.7072,0.43663 1.02441,0.67907 0.31979,0.23793 0.60409,0.46446 0.8529,0.67959 l -1.02021,1.77451 -0.37251,-0.21416 0.35515,-1.29175 c -0.11255,-0.19087 -0.27161,-0.38444 -0.47717,-0.58073 -0.20105,-0.19368 -0.43026,-0.36451 -0.68763,-0.51248 -0.2935,-0.16874 -0.58428,-0.26382 -0.87234,-0.28525 -0.28096,-0.0233 -0.56535,0.0324 -0.85318,0.16733 -0.28332,0.13751 -0.56556,0.35674 -0.84672,0.65768 -0.27665,0.30355 -0.55385,0.69689 -0.83162,1.18003 -0.23363,0.40637 -0.41134,0.79384 -0.53311,1.16239 -0.11918,0.36404 -0.15918,0.71053 -0.11998,1.03945 0.0392,0.32893 0.16692,0.63967 0.38322,0.93224 0.2208,0.29516 0.55471,0.57125 1.00173,0.82824 0.15351,0.0883 0.31189,0.17331 0.47512,0.25514 0.17033,0.0799 0.3352,0.15366 0.49459,0.22127 0.16649,0.0657 0.323,0.12262 0.46953,0.17081 0.15103,0.0508 0.28755,0.0902 0.40958,0.11833 l -0.23363,0.40638"
         style="fill:#ffffff"
         id="path3127" />
      <path
         d="m 443.89297,370.11223 c 0.27466,0.18887 0.5123,0.39021 0.71293,0.60402 0.20062,0.21381 0.34397,0.44197 0.43006,0.68447 0.0861,0.2425 0.10254,0.5035 0.0494,0.783 -0.0459,0.27817 -0.17952,0.57818 -0.40085,0.90005 l -2.81093,4.08773 0.6425,0.67886 -0.1992,0.28968 -1.66084,-1.14208 0.2938,-0.68922 c -0.10865,0.0201 -0.24827,0.0347 -0.41887,0.0438 -0.16631,0.012 -0.35328,0.004 -0.56089,-0.0254 -0.20467,-0.0333 -0.42771,-0.095 -0.66911,-0.18516 -0.23712,-0.0872 -0.48014,-0.21639 -0.72905,-0.38755 -0.29183,-0.20068 -0.50761,-0.41543 -0.64733,-0.64425 -0.13545,-0.22588 -0.20865,-0.45953 -0.21962,-0.70095 -0.008,-0.24571 0.0375,-0.4957 0.13647,-0.74999 0.10196,-0.25857 0.24148,-0.51661 0.41854,-0.7741 0.18297,-0.26608 0.37304,-0.47355 0.57022,-0.6224 0.20012,-0.15315 0.40386,-0.2564 0.61122,-0.30976 0.20735,-0.0534 0.41632,-0.0677 0.62689,-0.043 0.21781,0.0234 0.43306,0.0734 0.64578,0.15015 0.21699,0.0797 0.43225,0.1803 0.64576,0.30184 0.2178,0.12449 0.43117,0.25541 0.64012,0.39277 l 0.92538,0.59841 0.65072,-0.94629 c 0.12394,-0.18025 0.22106,-0.35365 0.29136,-0.52023 0.0732,-0.17086 0.11028,-0.33502 0.11111,-0.49248 0.005,-0.15451 -0.0318,-0.30312 -0.11061,-0.44583 -0.0788,-0.14271 -0.2084,-0.27604 -0.38864,-0.39999 -0.206,-0.14165 -0.43333,-0.25688 -0.68197,-0.3457 -0.24866,-0.0888 -0.48337,-0.14275 -0.70412,-0.16183 l -0.73679,0.60267 -0.3605,-0.24789 0.90747,-1.31966 c 0.32026,0.13174 0.64321,0.27797 0.96885,0.43867 0.33286,0.15938 0.67311,0.35858 1.02073,0.59762 m -1.27748,3.69156 -0.861,-0.55415 c -0.25911,-0.16553 -0.49569,-0.29028 -0.70973,-0.37427 -0.21111,-0.0883 -0.41067,-0.12437 -0.59871,-0.10829 -0.18804,0.0161 -0.37113,0.0893 -0.54925,0.21963 -0.17813,0.13035 -0.35868,0.32856 -0.54164,0.59464 -0.5194,0.75532 -0.47225,1.34398 0.14145,1.76599 0.29182,0.20067 0.56501,0.34113 0.81957,0.42136 0.26179,0.0789 0.53539,0.14061 0.8208,0.18517 l 1.47851,-2.15008"
         style="fill:#ffffff"
         id="path3129" />
      <path
         d="m 445.05658,379.64173 0.86673,0.93221 -0.21769,0.27606 -2.98755,-2.35588 0.21769,-0.27606 1.10248,0.62064 6.20172,-7.86456 -0.86543,-0.92124 0.21769,-0.27606 1.99988,1.57704 -6.53552,8.28785"
         style="fill:#ffffff"
         id="path3131" />
    </g>
    <g
       transform="translate(0,-2.547288)"
       style="font-size:16px;font-style:normal;font-variant:normal;font-weight:normal;font-stretch:normal;line-height:125%;letter-spacing:0px;word-spacing:0px;fill:#ffffff;fill-opacity:1;stroke:none;font-family:Liberation Serif;-inkscape-font-specification:Liberation Serif"
       id="text3007-10">
      <path
         d="m 476.59533,435.52195 c -0.1346,-0.8435 -0.13654,-1.61586 -0.006,-2.31709 0.13154,-0.69609 0.38452,-1.30871 0.75894,-1.83786 0.37524,-0.52401 0.86544,-0.95561 1.4706,-1.29479 0.61029,-0.34 1.32176,-0.57483 2.1344,-0.7045 0.92578,-0.14773 1.74701,-0.15746 2.46368,-0.0292 0.71747,0.1334 1.33349,0.39112 1.84804,0.77314 0.5205,0.38635 0.94169,0.89403 1.26359,1.52304 0.32188,0.62901 0.55094,1.37041 0.68719,2.22419 0.0566,0.35488 0.0971,0.69125 0.12146,1.0091 0.0295,0.31701 0.0488,0.61983 0.0579,0.90846 0.01,0.29377 0.0123,0.57292 0.007,0.83748 -0.005,0.26454 -0.0143,0.52179 -0.0272,0.77174 l -2.25308,0.40699 -0.0813,-0.50919 1.30546,-0.44565 c 0.1637,-0.39532 0.26654,-0.84158 0.30852,-1.33878 0.0479,-0.49288 0.0325,-0.98619 -0.0463,-1.47994 -0.096,-0.60177 -0.26409,-1.12611 -0.50417,-1.57302 -0.23928,-0.44178 -0.5725,-0.79472 -0.99965,-1.05884 -0.42203,-0.26493 -0.95301,-0.436 -1.59296,-0.51321 -0.63399,-0.0729 -1.39588,-0.0383 -2.28566,0.10365 -0.78178,0.12475 -1.44972,0.31835 -2.00382,0.58082 -0.54897,0.26165 -0.99088,0.58269 -1.32574,0.96313 -0.32972,0.37961 -0.5532,0.81347 -0.67046,1.30159 -0.11644,0.49326 -0.12788,1.03305 -0.0343,1.61939 0.0509,0.31888 0.11987,0.61905 0.20698,0.90051 0.0879,0.28659 0.18759,0.54759 0.29899,0.78298 0.11222,0.24052 0.23021,0.45112 0.35398,0.6318 0.12973,0.18499 0.25669,0.33614 0.3809,0.45346 l 1.58853,0.0392 0.08,0.50147 -2.43758,0.34149 c -0.0962,-0.20618 -0.19731,-0.4432 -0.30334,-0.71108 -0.1009,-0.26872 -0.19952,-0.55625 -0.29587,-0.86259 -0.0964,-0.30636 -0.18488,-0.62979 -0.26559,-0.97028 -0.0807,-0.3405 -0.14855,-0.68304 -0.20353,-1.02764"
         style="fill:#ffffff"
         id="path3108" />
      <path
         d="m 485.23068,444.7681 -1.97989,0.13343 -0.0226,-0.33518 0.82696,-0.50988 c -0.01,-0.14551 -0.0307,-0.3007 -0.0627,-0.46559 -0.032,-0.16489 -0.0718,-0.32925 -0.11937,-0.49309 -0.0424,-0.16419 -0.0922,-0.32266 -0.14949,-0.4754 -0.0569,-0.14755 -0.11523,-0.27673 -0.17489,-0.38755 l -5.47196,0.36877 -0.1103,1.2681 -0.35077,0.0236 -0.23429,-3.47649 0.35077,-0.0236 0.25738,0.91445 6.23586,-0.42025 0.13235,-0.94072 0.35077,-0.0236 0.14394,2.13578 -0.90727,0.13162 c 0.10679,0.11286 0.22954,0.26902 0.36828,0.46848 0.14391,0.1991 0.28109,0.41433 0.41153,0.64567 0.13078,0.23652 0.2432,0.47168 0.33726,0.70548 0.0944,0.23898 0.14791,0.45201 0.16053,0.63909 l 0.008,0.11692"
         style="fill:#ffffff"
         id="path3110" />
      <path
         d="m 487.4847,448.27268 c -0.11459,0.001 -0.22425,-0.0206 -0.32898,-0.0662 -0.0995,-0.0404 -0.18875,-0.0992 -0.26783,-0.17637 -0.0791,-0.0772 -0.14273,-0.16752 -0.19089,-0.27109 -0.043,-0.10364 -0.0652,-0.21275 -0.0666,-0.32732 -0.001,-0.11458 0.018,-0.22421 0.0584,-0.32888 0.0456,-0.0995 0.10703,-0.18885 0.18419,-0.26793 0.0771,-0.0791 0.1649,-0.14269 0.26328,-0.19079 0.10363,-0.043 0.21273,-0.0652 0.32732,-0.0666 0.11456,-0.001 0.22419,0.0181 0.32887,0.0584 0.10474,0.0456 0.19665,0.10694 0.27575,0.18409 0.0791,0.0771 0.14007,0.16494 0.18297,0.26337 0.0482,0.10358 0.0729,0.21265 0.0744,0.32723 0.001,0.11457 -0.0207,0.22423 -0.0662,0.32897 -0.0404,0.10467 -0.0991,0.19656 -0.17627,0.27565 -0.0772,0.0791 -0.16756,0.14011 -0.27119,0.18307 -0.10358,0.0482 -0.21266,0.073 -0.32722,0.0744 m -9.19558,0.0361 -0.17967,1.26014 -0.35154,0.004 -0.0473,-3.8044 0.35154,-0.004 0.21082,1.24748 6.24952,-0.0776 0.18239,-1.04141 0.35154,-0.004 0.029,2.33575 -6.79635,0.0844"
         style="fill:#ffffff"
         id="path3112" />
      <path
         d="m 479.58223,455.61197 c -0.32776,-0.0155 -0.62705,-0.0817 -0.89787,-0.19881 -0.26587,-0.11162 -0.49249,-0.28135 -0.67987,-0.50919 -0.18218,-0.2276 -0.31967,-0.51826 -0.41247,-0.87198 -0.0878,-0.34829 -0.12021,-0.76694 -0.0971,-1.25598 0.0115,-0.24452 0.0386,-0.4857 0.0811,-0.72354 0.0371,-0.23289 0.0812,-0.4498 0.1324,-0.65073 0.046,-0.20118 0.0934,-0.37623 0.14211,-0.52514 0.0487,-0.14891 0.0877,-0.25656 0.11692,-0.32297 l 1.80268,0.0851 -0.0166,0.35117 -1.04035,0.33412 c -0.15329,0.1544 -0.28797,0.35661 -0.40406,0.60662 -0.11608,0.25001 -0.18223,0.5467 -0.19844,0.89007 -0.0228,0.48384 0.0636,0.86073 0.25947,1.13068 0.20077,0.2754 0.52227,0.42354 0.96449,0.44442 0.26012,0.0123 0.47601,-0.0323 0.64765,-0.13367 0.17684,-0.10115 0.32666,-0.23747 0.44947,-0.40895 0.1228,-0.17148 0.22603,-0.36996 0.30967,-0.59543 0.0886,-0.22003 0.17757,-0.44786 0.26691,-0.68349 0.0891,-0.23043 0.18846,-0.45777 0.29812,-0.68201 0.1094,-0.21904 0.24632,-0.41332 0.41075,-0.58284 0.16442,-0.16952 0.36627,-0.30338 0.60555,-0.40158 0.23927,-0.0982 0.53319,-0.13907 0.88176,-0.12262 0.33296,0.0157 0.62668,0.0895 0.88116,0.22149 0.25447,0.13194 0.46512,0.30874 0.63194,0.53039 0.16657,0.22686 0.28707,0.49065 0.36152,0.79137 0.0794,0.30616 0.11062,0.63874 0.0937,0.99771 -0.0167,0.35377 -0.0591,0.69851 -0.12703,1.03423 -0.0628,0.33595 -0.13278,0.65853 -0.20994,0.96774 l -1.59978,-0.0755 0.0173,-0.36678 0.86609,-0.2876 c 0.12604,-0.12962 0.2258,-0.31002 0.29929,-0.54118 0.0735,-0.23117 0.11648,-0.47942 0.12901,-0.74474 0.0199,-0.42141 -0.0689,-0.74888 -0.26647,-0.98241 -0.19779,-0.22833 -0.47357,-0.35085 -0.82733,-0.36755 -0.23933,-0.0113 -0.4396,0.034 -0.60083,0.13588 -0.15604,0.10213 -0.29285,0.23906 -0.41045,0.41079 -0.11265,0.17717 -0.2134,0.37837 -0.30224,0.6036 -0.0889,0.22523 -0.18054,0.45554 -0.27508,0.69093 -0.0945,0.23538 -0.20184,0.46495 -0.3219,0.68871 -0.11486,0.22399 -0.2597,0.42051 -0.43453,0.58954 -0.17508,0.17422 -0.38486,0.31031 -0.62933,0.40827 -0.24448,0.0979 -0.5436,0.13858 -0.89737,0.12188"
         style="fill:#ffffff"
         id="path3114" />
      <path
         d="m 477.03388,458.66165 c 0.0535,-0.49713 0.24129,-0.85407 0.56324,-1.07084 0.32138,-0.21159 0.74876,-0.28866 1.28213,-0.2312 l 5.11883,0.55138 0.10291,-0.95541 0.34954,0.0376 0.19835,1.00358 1.56999,0.96274 -0.0527,0.48935 -1.65449,-0.17821 -0.17989,1.67002 -0.65247,-0.0703 0.17989,-1.67002 -4.97901,-0.53633 c -0.3366,-0.0363 -0.59843,0.0115 -0.78549,0.14327 -0.18762,0.13694 -0.29482,0.32969 -0.32159,0.57826 -0.0206,0.19159 -0.0281,0.382 -0.0222,0.57121 0.005,0.19439 0.0148,0.37352 0.0285,0.5374 l -0.5049,-0.0544 c -0.0434,-0.0832 -0.084,-0.1924 -0.12188,-0.32743 -0.0384,-0.12987 -0.0673,-0.27442 -0.0869,-0.43368 -0.0253,-0.15463 -0.0416,-0.31879 -0.0491,-0.49246 -0.007,-0.17368 -0.002,-0.34855 0.0172,-0.52461"
         style="fill:#ffffff"
         id="path3116" />
      <path
         d="m 483.80743,465.37444 c -0.0574,0.32836 -0.14146,0.62826 -0.25231,0.8997 -0.11086,0.27143 -0.2586,0.49676 -0.44323,0.67601 -0.18464,0.17923 -0.41508,0.30289 -0.69132,0.37096 -0.27201,0.0741 -0.60042,0.0775 -0.98522,0.0103 l -4.88696,-0.85353 -0.34966,0.86683 -0.34632,-0.0605 0.34678,-1.98557 0.74897,-0.0199 c -0.0635,-0.0904 -0.13494,-0.21126 -0.21425,-0.36258 -0.0802,-0.14619 -0.15037,-0.3197 -0.21046,-0.52053 -0.055,-0.19994 -0.0917,-0.42842 -0.11028,-0.68544 -0.0195,-0.2519 -0.003,-0.52664 0.0488,-0.82421 0.0609,-0.34889 0.16633,-0.6345 0.31619,-0.85682 0.14896,-0.21719 0.33091,-0.38104 0.54583,-0.49154 0.22006,-0.10961 0.46629,-0.17235 0.73871,-0.18821 0.27755,-0.015 0.57024,0.004 0.87808,0.0582 0.3181,0.0555 0.58587,0.14197 0.80331,0.25926 0.22257,0.11818 0.40128,0.26042 0.53614,0.42673 0.13486,0.1663 0.2349,0.35032 0.30012,0.55205 0.0695,0.20776 0.11359,0.42431 0.13239,0.64966 0.0179,0.23047 0.0161,0.46807 -0.006,0.7128 -0.0225,0.24985 -0.0527,0.49836 -0.0906,0.74554 l -0.15874,1.09051 1.13132,0.19759 c 0.21548,0.0376 0.41358,0.0537 0.5943,0.0483 0.18584,-0.005 0.35051,-0.0392 0.49402,-0.10406 0.1426,-0.0597 0.26236,-0.15509 0.35929,-0.2862 0.0969,-0.13112 0.16419,-0.30442 0.20183,-0.5199 0.043,-0.24628 0.0531,-0.50094 0.0303,-0.76399 -0.0228,-0.26305 -0.0715,-0.49891 -0.14607,-0.70756 l -0.85473,-0.41892 0.0753,-0.43098 1.57768,0.27555 c 0.0136,0.34603 0.0151,0.70054 0.005,1.06352 -0.006,0.369 -0.0457,0.7613 -0.1183,1.17688 m -3.88825,0.3757 0.1453,-1.01355 c 0.0426,-0.30451 0.0575,-0.57155 0.0448,-0.80113 -0.008,-0.22868 -0.0579,-0.42516 -0.15084,-0.58942 -0.0929,-0.16428 -0.23571,-0.30025 -0.42839,-0.40792 -0.19269,-0.10767 -0.44808,-0.18929 -0.76618,-0.24484 -0.903,-0.15772 -1.41856,0.13027 -1.5467,0.86396 -0.0609,0.34888 -0.0749,0.65575 -0.0418,0.92059 0.0373,0.27087 0.0951,0.54532 0.17343,0.82337 l 2.57046,0.44894"
         style="fill:#ffffff"
         id="path3118" />
      <path
         d="m 475.62619,470.40022 -0.48731,1.17592 -0.34159,-0.0832 0.90001,-3.6967 0.34159,0.0832 -0.10593,1.26073 9.73137,2.36921 0.47787,-1.17017 0.34159,0.0832 -0.60247,2.47459 -10.25513,-2.49674"
         style="fill:#ffffff"
         id="path3120" />
    </g>
    <g
       style="font-size:16px;font-style:normal;font-variant:normal;font-weight:normal;font-stretch:normal;line-height:125%;letter-spacing:0px;word-spacing:0px;fill:#ffffff;fill-opacity:1;stroke:none;font-family:Liberation Serif;-inkscape-font-specification:Liberation Serif"
       id="text3007-10-0">
      <path
         d="m 440.10256,520.7217 c 0.69571,-0.49558 1.38667,-0.84071 2.0729,-1.03538 0.682,-0.19166 1.34322,-0.23743 1.98366,-0.13731 0.6362,0.10315 1.24073,0.35035 1.8136,0.74161 0.57588,0.3955 1.10254,0.92837 1.57999,1.59863 0.54393,0.76357 0.91776,1.49484 1.12151,2.1938 0.19949,0.70198 0.24253,1.36834 0.1291,1.99909 -0.11465,0.63799 -0.38213,1.24098 -0.80244,1.80897 -0.42032,0.56797 -0.98257,1.10278 -1.68676,1.60441 -0.2927,0.20849 -0.57599,0.3943 -0.84987,0.55744 -0.27085,0.16734 -0.53352,0.31928 -0.78798,0.4558 -0.25871,0.13951 -0.50772,0.26573 -0.74702,0.37865 -0.2393,0.1129 -0.47375,0.21916 -0.70335,0.31878 l -1.36626,-1.83721 0.41997,-0.29916 0.97958,0.97121 c 0.42689,-0.0291 0.87234,-0.13542 1.33635,-0.31887 0.4628,-0.17621 0.89782,-0.40935 1.30506,-0.69943 0.49633,-0.35357 0.89128,-0.73722 1.18485,-1.15096 0.28933,-0.41074 0.45733,-0.86613 0.50399,-1.36617 0.0497,-0.49581 -0.0332,-1.04749 -0.24852,-1.65503 -0.21659,-0.6003 -0.58627,-1.26738 -1.10904,-2.00126 -0.45932,-0.6448 -0.9297,-1.15702 -1.41115,-1.53665 -0.47844,-0.3754 -0.96247,-0.6285 -1.45212,-0.7593 -0.48662,-0.12657 -0.97461,-0.13386 -1.46397,-0.0219 -0.49359,0.115 -0.98219,0.34475 -1.46579,0.68924 -0.26301,0.18734 -0.5012,0.3826 -0.71459,0.58576 -0.21762,0.20618 -0.40709,0.41148 -0.56841,0.61593 -0.16555,0.20745 -0.30173,0.40677 -0.40855,0.59796 -0.10802,0.19845 -0.18696,0.37938 -0.23683,0.54279 l 0.67111,1.44034 -0.4136,0.29463 -1.38963,-2.03159 c 0.14191,-0.17783 0.30927,-0.37378 0.50208,-0.58785 0.19584,-0.20985 0.40954,-0.42603 0.6411,-0.64853 0.23158,-0.22251 0.48192,-0.4456 0.75103,-0.66927 0.26912,-0.22368 0.54578,-0.43674 0.83,-0.6392"
         style="fill:#ffffff"
         id="path3099" />
      <path
         d="m 434.14525,525.35978 -1.18254,0.47101 -0.17866,-0.30278 3.27675,-1.93353 0.17867,0.30278 -0.9773,0.80346 5.08989,8.62588 1.17184,-0.47376 0.17866,0.30278 -2.19348,1.29431 -5.36383,-9.09015"
         style="fill:#ffffff"
         id="path3101" />
      <path
         d="m 431.28774,528.70819 c -0.19277,-0.38693 -0.42765,-0.64232 -0.70466,-0.76617 -0.27933,-0.11687 -0.61713,-0.0766 -1.01339,0.12082 -0.26106,0.13006 -0.52332,0.28108 -0.78677,0.45307 -0.26113,0.17664 -0.50364,0.36729 -0.72755,0.57194 l 2.58845,5.19561 1.08006,-0.31988 0.15677,0.31468 -2.14677,1.06952 -3.03089,-6.08369 -0.91923,0.23975 -0.15677,-0.31467 1.91601,-0.95456 0.32071,0.50358 c 0.098,-0.14194 0.22055,-0.29899 0.36754,-0.47114 0.14699,-0.17215 0.30679,-0.34196 0.47939,-0.50941 0.16795,-0.16514 0.34403,-0.31978 0.52824,-0.46392 0.18422,-0.14415 0.36025,-0.25803 0.52807,-0.34164 0.25174,-0.12542 0.49759,-0.20426 0.73754,-0.23652 0.23996,-0.0323 0.47285,-0.009 0.69867,0.0709 0.22116,0.0818 0.43409,0.22306 0.63877,0.42367 0.20234,0.2076 0.39061,0.48621 0.5648,0.83585 l 2.13904,4.29355 0.92622,-0.24324 0.15677,0.31467 -1.99992,0.99636 -2.3411,-4.69912"
         style="fill:#ffffff"
         id="path3103" />
      <path
         d="m 421.20343,535.09348 c 0.19248,0.49515 0.39994,0.89228 0.62237,1.1914 0.21947,0.30584 0.45473,0.53011 0.70577,0.67282 0.2462,0.14458 0.50521,0.21433 0.77705,0.20925 0.26887,0.002 0.54651,-0.0532 0.83292,-0.1645 0.11651,-0.0453 0.24084,-0.0992 0.37299,-0.16175 0.1273,-0.0607 0.25176,-0.12861 0.3734,-0.20382 0.12352,-0.0704 0.2403,-0.14371 0.35034,-0.22 0.11005,-0.0763 0.20121,-0.15086 0.27349,-0.22366 l -2.1087,-5.42488 c -0.21899,0.0404 -0.46332,0.10186 -0.73302,0.18434 -0.26968,0.0825 -0.52832,0.17184 -0.7759,0.26807 -0.66991,0.26041 -1.05346,0.71125 -1.15065,1.35253 -0.0972,0.64127 0.0561,1.48134 0.45994,2.5202 m 7.0031,4.45279 1.06553,-0.21302 0.12737,0.32768 -2.20636,0.85764 -0.95104,-2.44666 c -0.0359,-0.0923 -0.0749,-0.19999 -0.11726,-0.32323 -0.0453,-0.11652 -0.091,-0.24125 -0.13708,-0.3742 -0.0491,-0.12622 -0.0942,-0.25675 -0.13545,-0.39159 -0.0442,-0.12811 -0.0865,-0.25136 -0.12696,-0.36975 -0.15241,0.25482 -0.36414,0.49358 -0.6352,0.7163 -0.27403,0.22945 -0.60037,0.41776 -0.97902,0.56496 -0.93206,0.36229 -1.75605,0.35569 -2.47199,-0.0198 -0.7189,-0.36877 -1.30101,-1.12598 -1.74635,-2.27163 -0.22454,-0.57769 -0.36428,-1.12408 -0.41922,-1.63917 -0.053,-0.51024 -0.0117,-0.97893 0.124,-1.40607 0.13572,-0.42715 0.37107,-0.80642 0.70605,-1.1378 0.33014,-0.32949 0.76949,-0.60085 1.31804,-0.81408 0.23302,-0.0906 0.47655,-0.16848 0.73059,-0.2337 0.24731,-0.0682 0.49596,-0.12573 0.74596,-0.17261 0.25,-0.0469 0.49555,-0.0837 0.73664,-0.11032 0.24298,-0.0218 0.47086,-0.0322 0.68364,-0.031 l 3.68811,9.48809"
         style="fill:#ffffff"
         id="path3105" />
    </g>
    <g
       style="font-size:16px;font-style:normal;font-variant:normal;font-weight:normal;font-stretch:normal;line-height:125%;letter-spacing:0px;word-spacing:0px;fill:#ffffff;fill-opacity:1;stroke:none;font-family:Liberation Serif;-inkscape-font-specification:Liberation Serif"
       id="text3007-10-0-3">
      <path
         d="m 357.53865,538.51247 c -0.13158,0.39534 -0.20061,0.75112 -0.20707,1.06736 -0.0114,0.31458 0.0513,0.59619 0.18812,0.84484 0.13023,0.25193 0.33867,0.47501 0.62533,0.66925 0.28667,0.19422 0.66226,0.36864 1.12678,0.52327 l 0.72644,0.2418 1.56679,-4.70702 -0.77092,-0.25661 c -0.46451,-0.15462 -0.87054,-0.22939 -1.21806,-0.2243 -0.3541,0.008 -0.65959,0.0851 -0.91647,0.23015 -0.26181,0.1434 -0.48242,0.35266 -0.66184,0.6278 -0.1794,0.27512 -0.33243,0.60294 -0.4591,0.98346 m 4.24845,-2.02764 1.10046,-3.30603 -1.51228,-0.7257 0.13078,-0.39287 4.18814,1.39408 -0.13078,0.39287 -1.24522,-0.19218 -2.91645,8.76174 1.21082,0.61712 -0.13077,0.39287 -3.7508,-1.2485 c -0.69678,-0.23194 -1.25194,-0.50182 -1.66548,-0.80963 -0.42011,-0.30452 -0.72659,-0.63709 -0.91946,-0.9977 -0.19449,-0.35568 -0.29182,-0.73116 -0.292,-1.12644 -1.5e-4,-0.39529 0.068,-0.79801 0.20454,-1.20817 0.1349,-0.40523 0.32415,-0.77589 0.56775,-1.11198 0.23869,-0.33775 0.5441,-0.60387 0.91623,-0.79837 0.36721,-0.19616 0.80939,-0.30422 1.32654,-0.3242 0.51716,-0.02 1.11672,0.0835 1.79868,0.31052 l 1.1193,0.37257"
         style="fill:#ffffff"
         id="path3088" />
      <path
         d="m 354.69456,531.7166 c 0.17553,-0.39506 0.22281,-0.7388 0.14187,-1.03123 -0.0878,-0.28979 -0.33401,-0.52456 -0.73859,-0.70431 -0.26654,-0.11842 -0.55,-0.22442 -0.85039,-0.31799 -0.30249,-0.0888 -0.60393,-0.15435 -0.90432,-0.19662 l -2.35688,5.30467 0.9345,0.62893 -0.14274,0.32128 -2.19183,-0.97385 2.75974,-6.21138 -0.7703,-0.55597 0.14275,-0.32128 1.95623,0.86916 -0.18397,0.56798 c 0.17188,-0.0148 0.37098,-0.0204 0.59731,-0.0167 0.22634,0.004 0.45903,0.0187 0.69806,0.0451 0.23427,0.0243 0.46564,0.0616 0.69409,0.11176 0.22847,0.0502 0.42837,0.11339 0.59972,0.18952 0.25702,0.1142 0.47438,0.25352 0.65209,0.41796 0.1777,0.16444 0.30782,0.35904 0.39034,0.58378 0.0778,0.22263 0.1045,0.47672 0.0802,0.76229 -0.0312,0.28821 -0.12605,0.61081 -0.28466,0.96779 l -1.94768,4.38366 0.77744,0.55915 -0.14275,0.32127 -2.0419,-0.90722 2.13167,-4.79776"
         style="fill:#ffffff"
         id="path3090" />
      <path
         d="m 344.96216,532.20367 c -0.16795,0.002 -0.36118,-0.005 -0.5797,-0.0195 -0.22304,-0.0172 -0.44911,-0.0451 -0.67819,-0.0835 -0.22907,-0.0385 -0.45052,-0.0906 -0.66436,-0.15634 -0.21637,-0.0612 -0.4064,-0.13753 -0.5701,-0.22896 -0.24554,-0.13716 -0.45157,-0.29699 -0.61809,-0.47949 -0.16651,-0.1825 -0.28061,-0.38942 -0.34231,-0.62074 -0.0662,-0.23388 -0.073,-0.49417 -0.0202,-0.78088 0.0482,-0.28925 0.16759,-0.60439 0.35807,-0.94541 l 2.3545,-4.21511 -0.6823,-0.60484 0.17145,-0.30693 2.76233,1.543 -0.17145,0.30693 -0.94782,-0.30572 -2.28592,4.09233 c -0.2108,0.37741 -0.28268,0.72503 -0.21564,1.04288 0.06,0.31985 0.28321,0.58773 0.6697,0.80362 0.12732,0.0711 0.26527,0.13922 0.41384,0.20432 0.14859,0.0651 0.29616,0.12665 0.44272,0.18466 0.14658,0.058 0.28887,0.10766 0.42688,0.14896 0.13092,0.0433 0.24239,0.0787 0.33439,0.10625 l 2.85359,-5.1086 -0.77096,-0.65437 0.17144,-0.30693 2.76915,1.54681 -0.17145,0.30693 -0.86597,-0.26 -3.04789,5.45644 0.67548,0.60103 -0.17145,0.30693 -1.82791,-1.02105 0.22817,-0.55265"
         style="fill:#ffffff"
         id="path3092" />
      <path
         d="m 337.76341,520.28745 c 0.16762,-0.006 0.35096,0.0112 0.55001,0.0516 0.19615,0.0447 0.39576,0.10759 0.59886,0.1885 0.20603,0.0766 0.41337,0.16983 0.62204,0.27968 0.20436,0.10693 0.3971,0.22172 0.57823,0.34437 0.52615,0.35627 0.92863,0.73259 1.20746,1.12897 0.2716,0.39777 0.43255,0.81497 0.48285,1.25159 0.0503,0.43662 -0.003,0.89128 -0.15935,1.36397 -0.15945,0.477 -0.41001,0.96779 -0.75169,1.47237 -0.37378,0.55202 -0.76617,0.97822 -1.17715,1.27862 -0.41821,0.30178 -0.84284,0.49229 -1.2739,0.57153 -0.43397,0.0835 -0.86866,0.066 -1.30407,-0.0527 -0.43971,-0.12164 -0.87088,-0.32554 -1.29353,-0.61172 -0.34932,-0.23654 -0.67326,-0.48735 -0.97182,-0.75241 -0.30147,-0.26075 -0.56838,-0.50753 -0.80073,-0.74034 l 1.14765,-1.69487 0.3558,0.24092 -0.44898,1.26221 c 0.0983,0.19861 0.24268,0.40334 0.43327,0.61418 0.18631,0.20791 0.40236,0.3951 0.64818,0.56155 0.28033,0.18982 0.56335,0.30598 0.84906,0.34849 0.27849,0.0439 0.56621,0.009 0.86316,-0.10428 0.29264,-0.11635 0.59021,-0.31428 0.89269,-0.59378 0.29818,-0.28244 0.6035,-0.65438 0.91596,-1.11583 0.26283,-0.38814 0.46848,-0.76152 0.61697,-1.12014 0.14557,-0.35432 0.21088,-0.69693 0.19593,-1.02785 -0.0149,-0.33091 -0.11954,-0.65019 -0.31379,-0.95784 -0.19855,-0.31057 -0.5113,-0.61041 -0.93826,-0.89951 -0.14662,-0.0993 -0.29833,-0.19573 -0.45512,-0.28931 -0.16401,-0.0922 -0.32302,-0.17784 -0.47702,-0.25696 -0.16123,-0.0777 -0.31314,-0.14599 -0.45573,-0.20481 -0.14689,-0.0617 -0.28016,-0.11108 -0.3998,-0.14806 l 0.26282,-0.38814"
         style="fill:#ffffff"
         id="path3094" />
      <path
         d="m 330.63198,524.21304 c 0.0459,-0.0567 0.10364,-0.12384 0.17324,-0.2015 0.0656,-0.081 0.13643,-0.16432 0.21258,-0.25008 0.0688,-0.085 0.14009,-0.16469 0.21374,-0.23908 0.0696,-0.0777 0.12977,-0.13955 0.18047,-0.1856 -0.16577,-0.027 -0.35911,-0.0697 -0.58002,-0.12793 -0.22089,-0.0583 -0.44295,-0.12751 -0.66617,-0.20775 -0.22725,-0.0835 -0.44265,-0.17754 -0.6462,-0.28206 -0.21086,-0.10375 -0.38914,-0.21463 -0.53486,-0.33263 -0.21856,-0.17701 -0.39432,-0.36963 -0.5273,-0.57784 -0.13296,-0.20822 -0.21011,-0.43156 -0.23147,-0.67002 -0.0254,-0.24174 0.0123,-0.49936 0.11322,-0.77288 0.0968,-0.2768 0.26817,-0.56698 0.514,-0.87054 l 3.03862,-3.75201 -0.56919,-0.7123 0.22125,-0.2732 2.45885,1.99133 -0.22126,0.2732 -0.88183,-0.46283 -2.97962,3.67916 c -0.27205,0.33594 -0.39723,0.66015 -0.37552,0.97263 0.0144,0.31325 0.19362,0.60919 0.53765,0.88782 0.11333,0.0918 0.23967,0.18404 0.37902,0.27679 0.13531,0.0895 0.27226,0.17692 0.41083,0.26235 0.13859,0.0854 0.27236,0.16024 0.4013,0.22447 0.12568,0.0683 0.2315,0.1238 0.31746,0.16661 l 3.68273,-4.54733 -0.64812,-0.77623 0.22125,-0.2732 2.50134,2.02575 -0.22126,0.2732 -0.84539,-0.43332 -6.30342,7.78329 0.73197,0.83407 -0.22126,0.2732 -1.85779,-1.50456 2.00116,-2.47098"
         style="fill:#ffffff"
         id="path3096" />
    </g>
    <g
       transform="translate(0,-0.73354597)"
       style="font-size:16px;font-style:normal;font-variant:normal;font-weight:normal;font-stretch:normal;line-height:125%;letter-spacing:0px;word-spacing:0px;fill:#ffffff;fill-opacity:1;stroke:none;font-family:Liberation Serif;-inkscape-font-specification:Liberation Serif"
       id="text3007-10-0-6">
      <path
         d="m 296.88338,457.54382 c -0.76426,0.10039 -1.40877,0.29273 -1.93351,0.57703 -0.52989,0.28498 -0.94946,0.65002 -1.25872,1.09512 -0.30992,0.43995 -0.51605,0.95031 -0.61838,1.53107 -0.10231,0.58078 -0.10836,1.21457 -0.0182,1.90137 l 0.18314,1.39428 8.96208,-1.17717 c -0.01,-0.15627 -0.0243,-0.32512 -0.0429,-0.50654 -0.0186,-0.18142 -0.0353,-0.36834 -0.05,-0.56076 -0.0199,-0.19174 -0.0399,-0.38349 -0.0598,-0.57524 -0.0258,-0.19623 -0.0509,-0.38729 -0.0753,-0.5732 -0.0861,-0.65582 -0.25527,-1.20356 -0.50738,-1.64323 -0.25796,-0.44414 -0.59767,-0.79087 -1.01915,-1.0402 -0.42663,-0.24863 -0.93571,-0.40502 -1.52723,-0.46916 -0.59219,-0.0693 -1.27042,-0.0537 -2.03469,0.0466 m -4.59102,4.70042 c -0.11326,-0.86238 -0.12498,-1.65143 -0.0351,-2.36714 0.0892,-0.72087 0.30552,-1.35339 0.64903,-1.89756 0.34353,-0.54416 0.82332,-0.99065 1.43938,-1.33949 0.6154,-0.35398 1.3956,-0.59304 2.3406,-0.71718 0.84689,-0.11122 1.6125,-0.10147 2.2968,0.0293 0.68432,0.13076 1.27994,0.38609 1.78685,0.76601 0.50693,0.37993 0.92067,0.89029 1.24122,1.53108 0.31988,0.63564 0.53917,1.4053 0.65787,2.30899 0.0387,0.29435 0.0785,0.61744 0.11943,0.96926 0.0454,0.34599 0.0876,0.68715 0.12656,1.02349 0.0389,0.33634 0.0758,0.65718 0.11067,0.96253 0.0393,0.29951 0.0722,0.54997 0.0987,0.75136 l 0.175,1.33231 -0.41054,0.0539 -0.38414,-1.30483 -9.15573,1.2026 -0.0264,1.35876 -0.41053,0.0539 -0.61962,-4.71729"
         style="fill:#ffffff"
         id="path3079" />
      <path
         d="m 298.2265,452.63473 0.14058,-0.004 c 0.38009,-0.01 0.74389,-0.0449 1.09142,-0.10576 0.3474,-0.0661 0.65443,-0.18327 0.92109,-0.35153 0.26133,-0.17332 0.46895,-0.41042 0.62284,-0.71128 0.1487,-0.30073 0.21692,-0.69321 0.20467,-1.17743 -0.004,-0.15619 -0.0133,-0.32007 -0.0281,-0.49163 -0.02,-0.17142 -0.0425,-0.34278 -0.0677,-0.51408 -0.0252,-0.17129 -0.0528,-0.33731 -0.0829,-0.49806 -0.0301,-0.16075 -0.0625,-0.30841 -0.0972,-0.443 l 0.43736,-0.0111 c 0.0811,0.11778 0.16032,0.26166 0.23755,0.43163 0.0719,0.16491 0.13906,0.34816 0.20147,0.54977 0.0624,0.20161 0.11213,0.41657 0.14916,0.64487 0.0422,0.22818 0.0663,0.45941 0.0722,0.69371 0.0154,0.60918 -0.0549,1.12675 -0.2108,1.5527 -0.15608,0.42075 -0.39484,0.76544 -0.71628,1.03406 -0.32143,0.26864 -0.72281,0.46635 -1.20413,0.59314 -0.48132,0.12679 -1.03699,0.19816 -1.667,0.21409 -1.28083,0.0324 -2.24304,-0.21158 -2.88662,-0.73193 -0.64356,-0.52036 -0.97792,-1.27777 -1.00308,-2.27224 -0.01,-0.3905 0.033,-0.75628 0.12855,-1.09735 0.0955,-0.34627 0.2623,-0.65007 0.50055,-0.91139 0.23827,-0.26131 0.56122,-0.47006 0.96885,-0.62626 0.40751,-0.16139 0.91846,-0.24986 1.53284,-0.2654 l 0.64042,-0.0162 0.11418,4.51418 m -3.26059,-1.61339 c 0.007,0.29158 0.0763,0.54252 0.2066,0.75283 0.12503,0.20524 0.30126,0.37532 0.5287,0.51024 0.22731,0.12971 0.50323,0.22433 0.82775,0.28385 0.31919,0.0544 0.67664,0.0767 1.07234,0.0666 l -0.0794,-3.13962 c -0.3957,0.01 -0.75176,0.0425 -1.06819,0.0974 -0.32175,0.0498 -0.59313,0.13484 -0.81412,0.25505 -0.22112,0.115 -0.38919,0.26774 -0.50421,0.4582 -0.12021,0.19061 -0.1767,0.42909 -0.16946,0.71545"
         style="fill:#ffffff"
         id="path3081" />
      <path
         d="m 298.21227,445.24818 0.14042,0.008 c 0.37966,0.0206 0.74511,0.0143 1.09638,-0.0188 0.35155,-0.0383 0.6669,-0.13078 0.94607,-0.27735 0.27426,-0.15205 0.50002,-0.37193 0.6773,-0.65964 0.17208,-0.28799 0.27122,-0.67382 0.29742,-1.15748 0.008,-0.15602 0.0121,-0.32013 0.011,-0.49232 -0.006,-0.17246 -0.0152,-0.34507 -0.0267,-0.51783 -0.0115,-0.17274 -0.0259,-0.34043 -0.0432,-0.50307 -0.0173,-0.16262 -0.0378,-0.31239 -0.0617,-0.44931 l 0.43685,0.0237 c 0.0715,0.12385 0.13906,0.27355 0.20257,0.44912 0.0586,0.17009 0.111,0.35809 0.15722,0.56401 0.0462,0.20593 0.0787,0.42416 0.0975,0.65468 0.024,0.2308 0.0297,0.46322 0.017,0.69725 -0.033,0.60848 -0.14407,1.11885 -0.33331,1.53108 -0.18896,0.40705 -0.45431,0.73171 -0.79604,0.974 -0.34173,0.24228 -0.75753,0.40753 -1.2474,0.49575 -0.48986,0.0882 -1.04943,0.11527 -1.67872,0.0812 -1.27937,-0.0693 -2.21919,-0.38884 -2.81946,-0.95861 -0.60026,-0.56976 -0.87349,-1.3513 -0.81968,-2.34464 0.0211,-0.39005 0.0929,-0.75128 0.21518,-1.0837 0.12262,-0.33761 0.31304,-0.62721 0.57127,-0.86881 0.25825,-0.24158 0.59674,-0.42406 1.01548,-0.54743 0.41903,-0.12856 0.93538,-0.17622 1.54906,-0.14298 l 0.63969,0.0347 -0.24427,4.50901 m -3.12233,-1.86694 c -0.0158,0.29124 0.033,0.54685 0.14623,0.76684 0.10836,0.21451 0.27054,0.39803 0.48656,0.55056 0.21631,0.14734 0.48385,0.26355 0.80263,0.34862 0.31387,0.0796 0.66842,0.1301 1.06367,0.15151 l 0.16989,-3.13603 c -0.39525,-0.0214 -0.75276,-0.0173 -1.07255,0.0123 -0.32469,0.0241 -0.60195,0.0874 -0.83179,0.18965 -0.22954,0.0971 -0.40919,0.23603 -0.53896,0.41677 -0.13495,0.18047 -0.21018,0.41372 -0.22568,0.69976"
         style="fill:#ffffff"
         id="path3083" />
      <path
         d="m 295.59063,438.26538 -0.30968,0.80064 -0.34815,-0.0489 0.28686,-2.04246 0.42768,0.0443 c -0.0776,-0.12134 -0.14239,-0.2593 -0.19433,-0.41386 -0.0564,-0.16043 -0.0984,-0.32938 -0.12604,-0.50683 -0.0328,-0.17817 -0.0513,-0.36485 -0.0555,-0.56003 -0.004,-0.19518 0.008,-0.39077 0.0351,-0.58676 0.0638,-0.45388 0.20092,-0.85011 0.41151,-1.1887 0.21061,-0.33858 0.49354,-0.61178 0.84881,-0.8196 0.35012,-0.20853 0.76891,-0.34431 1.25636,-0.40735 0.48303,-0.0689 1.02885,-0.0606 1.63746,0.0249 0.59314,0.0833 1.12012,0.2257 1.58096,0.42716 0.45567,0.20075 0.83488,0.45913 1.13762,0.77513 0.29758,0.3153 0.50802,0.68934 0.63132,1.12215 0.12401,0.42766 0.14799,0.91227 0.0719,1.45382 -0.0369,0.26305 -0.0915,0.53939 -0.16377,0.82903 -0.0663,0.28522 -0.14637,0.55536 -0.24005,0.81043 0.0626,0.004 0.13297,0.008 0.21106,0.0139 0.084,0.001 0.16722,0.008 0.24975,0.0193 0.0884,0.007 0.16871,0.0158 0.24092,0.0259 0.0729,0.005 0.1326,0.0107 0.17902,0.0173 l 1.96509,0.27599 0.36388,-1.24272 0.36362,0.0511 -0.48679,3.46598 -0.36362,-0.0511 -0.0564,-0.94673 -9.55466,-1.34192 m 3.67451,-4.31211 c -0.52609,-0.0739 -0.98096,-0.0931 -1.36464,-0.0575 -0.38366,0.0355 -0.7035,0.1221 -0.95951,0.2597 -0.26043,0.13173 -0.46182,0.31119 -0.60419,0.53839 -0.14235,0.2272 -0.2349,0.49296 -0.27764,0.79726 -0.0348,0.24757 -0.0489,0.51645 -0.0423,0.80664 0.002,0.28432 0.0307,0.53027 0.0857,0.73785 l 5.81017,0.81602 c 0.0717,-0.21083 0.13889,-0.44596 0.20162,-0.70538 0.0576,-0.26014 0.10484,-0.52174 0.14178,-0.78478 0.0956,-0.68082 -0.11593,-1.21544 -0.63466,-1.60386 -0.52389,-0.38914 -1.30934,-0.65724 -2.35635,-0.8043"
         style="fill:#ffffff"
         id="path3085" />
    </g>
  </g>
</svg>
